<svg xmlns="http://www.w3.org/2000/svg" id="doc_m" width="28" height="32" viewBox="0 0 28 32">
    <defs>
        <style>
            .cls-3{fill:#cad1d8}.cls-5{fill:#fff}
        </style>
    </defs>
    <path id="Path_169" fill="#e2e5e7" d="M98 0a2.006 2.006 0 0 0-2 2v28a2.006 2.006 0 0 0 2 2h20a2.006 2.006 0 0 0 2-2V8l-8-8z" transform="translate(-92)"/>
    <path id="Path_170" fill="#b0b7bd" d="M354 8h6l-8-8v6a2.006 2.006 0 0 0 2 2z" transform="translate(-332)"/>
    <path id="Path_171" d="M390 134l-6-6h6z" class="cls-3" transform="translate(-362 -120)"/>
    <path id="Path_172" fill="#508ae8" d="M56 251a1 1 0 0 1-1 1H33a1 1 0 0 1-1-1v-10a1 1 0 0 1 1-1h22a1 1 0 0 1 1 1z" transform="translate(-32 -225)"/>
    <g id="Group_118" transform="translate(3.234 18.267)">
        <path id="Path_173" d="M84.3 301a.5.5 0 0 1-.552-.5v-4.541a.543.543 0 0 1 .552-.5h1.831c3.654 0 3.573 5.533.071 5.533zm.5-4.558v3.582h1.327c2.159 0 2.254-3.582 0-3.582z" class="cls-5" transform="translate(-83.744 -295.272)"/>
        <path id="Path_174" d="M182.775 298.085a2.792 2.792 0 0 1-3.015-2.879 2.938 2.938 0 0 1 5.877 0 2.788 2.788 0 0 1-2.862 2.879zm-.088-4.773a1.9 1.9 0 1 0 1.9 1.895 1.83 1.83 0 0 0-1.9-1.895z" class="cls-5" transform="translate(-173.759 -292.272)"/>
        <path id="Path_175" d="M288.848 296.038a2.691 2.691 0 0 1 2.807-2.87 2.613 2.613 0 0 1 1.831.712.518.518 0 1 1-.712.751 1.38 1.38 0 0 0-1.119-.439 1.728 1.728 0 0 0-1.822 1.847 1.758 1.758 0 0 0 1.822 1.9 1.868 1.868 0 0 0 1.248-.512.537.537 0 0 1 .735.1.552.552 0 0 1-.088.751 2.9 2.9 0 0 1-4.7-2.239z" class="cls-5" transform="translate(-276.029 -293.112)"/>
    </g>
    <path id="Path_176" d="M115 417H96v1h19a1 1 0 0 0 1-1v-1a1 1 0 0 1-1 1z" class="cls-3" transform="translate(-92 -390)"/>
</svg>
