<svg xmlns="http://www.w3.org/2000/svg" id="pdf_m" width="28" height="32" viewBox="0 0 28 32">
    <defs>
        <style>
            .cls-3{fill:#cad1d8}.cls-5{fill:#fff}
        </style>
    </defs>
    <path id="Path_177" fill="#e2e5e7" d="M98 0a2.006 2.006 0 0 0-2 2v28a2.006 2.006 0 0 0 2 2h20a2.006 2.006 0 0 0 2-2V8l-8-8z" transform="translate(-92)"/>
    <path id="Path_178" fill="#b0b7bd" d="M354 8h6l-8-8v6a2.006 2.006 0 0 0 2 2z" transform="translate(-332)"/>
    <path id="Path_179" d="M390 134l-6-6h6z" class="cls-3" transform="translate(-362 -120)"/>
    <path id="Path_180" fill="#f42e14" d="M56 251a1 1 0 0 1-1 1H33a1 1 0 0 1-1-1v-10a1 1 0 0 1 1-1h22a1 1 0 0 1 1 1z" transform="translate(-32 -225)"/>
    <g id="Group_119" transform="translate(4.359 18.395)">
        <path id="Path_181" d="M101.744 294.872a.55.55 0 0 1 .543-.552h1.847a2 2 0 0 1 0 4H102.8v1.056a.5.5 0 0 1-.512.551.539.539 0 0 1-.543-.551zm1.055.455v1.992h1.335a1 1 0 0 0 0-1.992z" class="cls-5" transform="translate(-101.744 -294.32)"/>
        <path id="Path_182" d="M188.376 301a.5.5 0 0 1-.552-.495v-4.542a.544.544 0 0 1 .552-.5h1.831c3.654 0 3.574 5.533.072 5.533zm.5-4.557v3.582h1.327c2.159 0 2.255-3.582 0-3.582z" class="cls-5" transform="translate(-182.444 -295.4)"/>
        <path id="Path_183" d="M288.182 296.5v1.271h2.039a.618.618 0 0 1 .576.567.556.556 0 0 1-.576.48h-2.039v1.679a.474.474 0 0 1-.479.495.508.508 0 0 1-.567-.495v-4.542a.505.505 0 0 1 .567-.5h2.807a.5.5 0 0 1 .56.5.552.552 0 0 1-.56.544h-2.328z" class="cls-5" transform="translate(-275.549 -295.385)"/>
    </g>
    <path id="Path_184" d="M115 417H96v1h19a1 1 0 0 0 1-1v-1a1 1 0 0 1-1 1z" class="cls-3" transform="translate(-92 -390)"/>
</svg>
