<svg xmlns="http://www.w3.org/2000/svg" width="14" height="16" viewBox="0 0 14 16">
    <defs>
        <style>
            .cls-3{fill:#cad1d8}.cls-5{fill:#fff}
        </style>
    </defs>
    <g id="png_s" transform="translate(-32)">
        <path id="Path_230" fill="#e2e5e7" d="M97 0a1 1 0 0 0-1 1v14a1 1 0 0 0 1 1h10a1 1 0 0 0 1-1V4l-4-4z" transform="translate(-62)"/>
        <path id="Path_231" fill="#b0b7bd" d="M353 4h3l-4-4v3a1 1 0 0 0 1 1z" transform="translate(-310)"/>
        <path id="Path_232" d="M387 131l-3-3h3z" class="cls-3" transform="translate(-341 -124)"/>
        <path id="Path_233" fill="#a066aa" d="M44 245.5a.5.5 0 0 1-.5.5h-11a.5.5 0 0 1-.5-.5v-5a.5.5 0 0 1 .5-.5h11a.5.5 0 0 1 .5.5z" transform="translate(0 -232.5)"/>
        <g id="Group_126" transform="translate(33.9 9.162)">
            <path id="Path_234" d="M92.816 294.581a.275.275 0 0 1 .271-.276h.924a1 1 0 0 1 0 2h-.668v.528a.251.251 0 0 1-.256.276.269.269 0 0 1-.271-.276zm.527.228v1h.668a.5.5 0 0 0 0-1z" class="cls-5" transform="translate(-92.816 -294.269)"/>
            <path id="Path_235" d="M178.961 294.621c0-.145.032-.284.24-.284.144 0 .176.036.284.139l1.323 1.656v-1.551a.281.281 0 0 1 .252-.276.3.3 0 0 1 .283.276v2.25a.267.267 0 0 1-.212.276.4.4 0 0 1-.324-.139l-1.323-1.68v1.543a.248.248 0 0 1-.252.276.263.263 0 0 1-.272-.276v-2.211z" class="cls-5" transform="translate(-176.268 -294.269)"/>
            <path id="Path_236" d="M276.451 295.715a1.517 1.517 0 0 1-.983.336 1.318 1.318 0 0 1-1.436-1.432 1.425 1.425 0 0 1 1.471-1.435 1.309 1.309 0 0 1 .911.352.259.259 0 0 1-.347.384.843.843 0 0 0-.564-.252.953.953 0 0 0-.951.951.885.885 0 0 0 .915.952 1.017 1.017 0 0 0 .6-.18v-.491h-.6a.244.244 0 1 1 0-.489h.8a.274.274 0 0 1 .283.237v.852a.323.323 0 0 1-.099.215z" class="cls-5" transform="translate(-268.369 -293.184)"/>
        </g>
        <path id="Path_237" d="M105.5 416.5H96v.5h9.5a.5.5 0 0 0 .5-.5v-.5a.5.5 0 0 1-.5.5z" class="cls-3" transform="translate(-62 -403)"/>
    </g>
</svg>
