<svg xmlns="http://www.w3.org/2000/svg" width="28" height="32" viewBox="0 0 28 32">
    <defs>
        <style>
            .cls-3{fill:#cad1d8}.cls-5{fill:#fff}
        </style>
    </defs>
    <g id="png_m" transform="translate(-32)">
        <path id="Path_230" fill="#e2e5e7" d="M98 0a2.006 2.006 0 0 0-2 2v28a2.006 2.006 0 0 0 2 2h20a2.006 2.006 0 0 0 2-2V8l-8-8z" transform="translate(-60)"/>
        <path id="Path_231" fill="#b0b7bd" d="M354 8h6l-8-8v6a2.006 2.006 0 0 0 2 2z" transform="translate(-300)"/>
        <path id="Path_232" d="M390 134l-6-6h6z" class="cls-3" transform="translate(-330 -120)"/>
        <path id="Path_233" fill="#a066aa" d="M56 251a1 1 0 0 1-1 1H33a1 1 0 0 1-1-1v-10a1 1 0 0 1 1-1h22a1 1 0 0 1 1 1z" transform="translate(0 -225)"/>
        <g id="Group_126" transform="translate(35.801 18.324)">
            <path id="Path_234" d="M92.816 294.857a.55.55 0 0 1 .543-.553h1.848a2 2 0 0 1 0 4H93.87v1.056a.5.5 0 0 1-.511.552.539.539 0 0 1-.543-.552zm1.054.455v1.988h1.336a1 1 0 0 0 0-1.991z" class="cls-5" transform="translate(-92.816 -294.234)"/>
            <path id="Path_235" d="M178.961 294.937c0-.289.064-.568.48-.568.287 0 .352.072.567.279l2.646 3.311v-3.1a.563.563 0 0 1 .5-.553.609.609 0 0 1 .567.553v4.5a.534.534 0 0 1-.424.552.8.8 0 0 1-.647-.279l-2.646-3.359v3.087a.5.5 0 0 1-.5.552.526.526 0 0 1-.544-.552v-4.422z" class="cls-5" transform="translate(-173.576 -294.234)"/>
            <path id="Path_236" d="M278.87 298.245a3.035 3.035 0 0 1-1.967.672 2.637 2.637 0 0 1-2.871-2.863 2.85 2.85 0 0 1 2.942-2.87 2.618 2.618 0 0 1 1.823.7.518.518 0 0 1-.7.768 1.685 1.685 0 0 0-1.128-.5 1.905 1.905 0 0 0-1.9 1.9 1.769 1.769 0 0 0 1.831 1.9 2.035 2.035 0 0 0 1.2-.36v-.982h-1.2a.489.489 0 1 1 0-.977h1.6a.548.548 0 0 1 .567.473v1.7a.646.646 0 0 1-.197.439z" class="cls-5" transform="translate(-262.706 -293.184)"/>
        </g>
        <path id="Path_237" d="M115 417H96v1h19a1 1 0 0 0 1-1v-1a1 1 0 0 1-1 1z" class="cls-3" transform="translate(-60 -390)"/>
    </g>
</svg>
