<svg xmlns="http://www.w3.org/2000/svg" id="ppt_m" width="28" height="32" viewBox="0 0 28 32">
    <defs>
        <style>
            .cls-3{fill:#cad1d8}.cls-5{fill:#fff}
        </style>
    </defs>
    <path id="Path_185" fill="#e2e5e7" d="M98 0a2.006 2.006 0 0 0-2 2v28a2.006 2.006 0 0 0 2 2h20a2.006 2.006 0 0 0 2-2V8l-8-8z" transform="translate(-92)"/>
    <path id="Path_186" fill="#b0b7bd" d="M354 8h6l-8-8v6a2.006 2.006 0 0 0 2 2z" transform="translate(-332)"/>
    <path id="Path_187" d="M390 134l-6-6h6z" class="cls-3" transform="translate(-362 -120)"/>
    <path id="Path_188" fill="#f15642" d="M56 251a1 1 0 0 1-1 1H33a1 1 0 0 1-1-1v-10a1 1 0 0 1 1-1h22a1 1 0 0 1 1 1z" transform="translate(-32 -225)"/>
    <g id="Group_120" transform="translate(4.591 18.395)">
        <path id="Path_189" d="M105.456 294.872a.55.55 0 0 1 .543-.552h1.847a2 2 0 0 1 0 4h-1.335v1.056a.5.5 0 0 1-.511.551.539.539 0 0 1-.543-.551v-4.5zm1.055.455v1.992h1.335a1 1 0 0 0 0-1.992z" class="cls-5" transform="translate(-105.456 -294.32)"/>
        <path id="Path_190" d="M191.616 294.872a.55.55 0 0 1 .544-.552h1.847a2 2 0 0 1 0 4h-1.335v1.056a.5.5 0 0 1-.512.551.54.54 0 0 1-.544-.551zm1.055.455v1.992h1.335a1 1 0 0 0 0-1.992z" class="cls-5" transform="translate(-186.231 -294.32)"/>
        <path id="Path_191" d="M272.88 296.127h-1.4a.512.512 0 1 1 0-1.023h3.781a.512.512 0 1 1 0 1.023h-1.327v4.038a.528.528 0 0 1-1.056 0z" class="cls-5" transform="translate(-260.616 -295.055)"/>
    </g>
    <path id="Path_192" d="M115 417H96v1h19a1 1 0 0 0 1-1v-1a1 1 0 0 1-1 1z" class="cls-3" transform="translate(-92 -390)"/>
</svg>
