<svg xmlns="http://www.w3.org/2000/svg" id="xls_m" width="28" height="32" viewBox="0 0 28 32">
    <defs>
        <style>
            .cls-3{fill:#cad1d8}.cls-5{fill:#fff}
        </style>
    </defs>
    <path id="Path_193" fill="#e2e5e7" d="M98 0a2.006 2.006 0 0 0-2 2v28a2.006 2.006 0 0 0 2 2h20a2.006 2.006 0 0 0 2-2V8l-8-8z" transform="translate(-92)"/>
    <path id="Path_194" fill="#b0b7bd" d="M354 8h6l-8-8v6a2.006 2.006 0 0 0 2 2z" transform="translate(-332)"/>
    <path id="Path_195" d="M390 134l-6-6h6z" class="cls-3" transform="translate(-362 -120)"/>
    <path id="Path_196" fill="#84bd5a" d="M56 251a1 1 0 0 1-1 1H33a1 1 0 0 1-1-1v-10a1 1 0 0 1 1-1h22a1 1 0 0 1 1 1z" transform="translate(-32 -225)"/>
    <g id="Group_121" transform="translate(4.577 18.213)">
        <path id="Path_197" d="M107.67 296.99l1.391-1.743c.416-.544 1.224.151.768.671-.479.568-.983 1.184-1.463 1.815l1.634 2.031a.525.525 0 1 1-.871.583l-1.472-1.887-1.447 1.928c-.408.583-1.312-.072-.856-.616l1.607-2.039c-.5-.632-.992-1.247-1.479-1.815a.517.517 0 1 1 .8-.654z" class="cls-5" transform="translate(-105.226 -294.816)"/>
        <path id="Path_198" d="M197.36 295.832a.5.5 0 0 1 .5-.488.488.488 0 0 1 .472.488v4.006h2.175a.528.528 0 1 1 0 1.047h-2.646a.483.483 0 0 1-.5-.487v-4.566z" class="cls-5" transform="translate(-191.602 -295.098)"/>
        <path id="Path_199" d="M270.639 292.861c.184-1.552 2.526-1.831 3.63-.983a.468.468 0 1 1-.512.783c-.592-.375-1.935-.551-2.1.279-.216 1.312 3.262.561 3.206 2.688-.056 2.031-3 2.078-4.1 1.167a.591.591 0 0 1-.112-.784.472.472 0 0 1 .712-.055c.655.447 2.343.783 2.462-.353-.108-1.182-3.434-.471-3.186-2.742z" class="cls-5" transform="translate(-260.214 -291.407)"/>
    </g>
    <path id="Path_200" d="M115 417H96v1h19a1 1 0 0 0 1-1v-1a1 1 0 0 1-1 1z" class="cls-3" transform="translate(-92 -390)"/>
</svg>
