<svg xmlns="http://www.w3.org/2000/svg" id="xls_s" width="14" height="16" viewBox="0 0 14 16">
    <defs>
        <style>
            .cls-3{fill:#cad1d8}.cls-5{fill:#fff}
        </style>
    </defs>
    <path id="Path_193" fill="#e2e5e7" d="M97 0a1 1 0 0 0-1 1v14a1 1 0 0 0 1 1h10a1 1 0 0 0 1-1V4l-4-4z" transform="translate(-94)"/>
    <path id="Path_194" fill="#b0b7bd" d="M353 4h3l-4-4v3a1 1 0 0 0 1 1z" transform="translate(-342)"/>
    <path id="Path_195" d="M387 131l-3-3h3z" class="cls-3" transform="translate(-373 -124)"/>
    <path id="Path_196" fill="#84bd5a" d="M44 245.5a.5.5 0 0 1-.5.5h-11a.5.5 0 0 1-.5-.5v-5a.5.5 0 0 1 .5-.5h11a.5.5 0 0 1 .5.5z" transform="translate(-32 -232.5)"/>
    <g id="Group_121" transform="translate(2.288 9.106)">
        <path id="Path_197" d="M106.448 296.017l.7-.871c.208-.272.612.076.384.336-.24.284-.492.592-.731.908l.815 1.016a.262.262 0 1 1-.435.292l-.736-.944-.723.964c-.2.292-.656-.036-.428-.308l.8-1.019c-.252-.316-.5-.624-.739-.908a.259.259 0 1 1 .4-.327z" class="cls-5" transform="translate(-105.226 -294.93)"/>
        <path id="Path_198" d="M197.36 295.588a.249.249 0 0 1 .252-.244.244.244 0 0 1 .236.244v2h1.088a.264.264 0 1 1 0 .523h-1.323a.241.241 0 0 1-.252-.244v-2.283z" class="cls-5" transform="translate(-194.481 -295.221)"/>
        <path id="Path_199" d="M270.593 292.134c.092-.776 1.263-.915 1.815-.491a.234.234 0 1 1-.256.391c-.3-.187-.968-.276-1.052.14-.108.656 1.631.28 1.6 1.344-.028 1.016-1.5 1.039-2.051.583a.3.3 0 0 1-.056-.392.236.236 0 0 1 .356-.027c.328.223 1.172.391 1.231-.177-.048-.591-1.711-.235-1.587-1.371z" class="cls-5" transform="translate(-265.38 -291.407)"/>
    </g>
    <path id="Path_200" d="M105.5 416.5H96v.5h9.5a.5.5 0 0 0 .5-.5v-.5a.5.5 0 0 1-.5.5z" class="cls-3" transform="translate(-94 -403)"/>
</svg>
